<svg width="64" height="64" viewBox="0 0 64 64" fill="none" xmlns="http://www.w3.org/2000/svg">
<g clip-path="url(#clip0_171_658)">
<path d="M54 10H34V6C34 5.46957 33.7893 4.96086 33.4142 4.58579C33.0391 4.21071 32.5304 4 32 4C31.4696 4 30.9609 4.21071 30.5858 4.58579C30.2107 4.96086 30 5.46957 30 6V10H10C8.93951 10.0012 7.9228 10.423 7.17291 11.1729C6.42303 11.9228 6.00121 12.9395 6 14V44C6.00121 45.0605 6.42303 46.0772 7.17291 46.8271C7.9228 47.577 8.93951 47.9988 10 48H19.8389L14.4382 54.7507C14.2739 54.9558 14.1516 55.1912 14.0783 55.4436C14.005 55.696 13.9822 55.9603 14.0111 56.2215C14.04 56.4826 14.1202 56.7356 14.2469 56.9658C14.3736 57.196 14.5444 57.399 14.7497 57.5631C14.9549 57.7273 15.1904 57.8494 15.4428 57.9224C15.6952 57.9955 15.9596 58.0181 16.2208 57.989C16.4819 57.9598 16.7348 57.8795 16.9649 57.7526C17.195 57.6256 17.3978 57.4546 17.5618 57.2493L24.9612 48H39.0388L46.4382 57.2493C46.7697 57.663 47.2519 57.9281 47.7788 57.9864C48.3057 58.0448 48.8342 57.8916 49.2482 57.5604C49.6622 57.2293 49.9277 56.7473 49.9865 56.2205C50.0453 55.6936 49.8925 55.165 49.5618 54.7507L44.1611 48H54C55.0605 47.9988 56.0772 47.577 56.8271 46.8271C57.577 46.0772 57.9988 45.0605 58 44V14C57.9988 12.9395 57.577 11.9228 56.8271 11.1729C56.0772 10.423 55.0605 10.0012 54 10Z" fill="#36B28F"/>
<path d="M30 21H24C23.7348 21 23.4804 21.1054 23.2929 21.2929C23.1054 21.4804 23 21.7348 23 22V28C23 28.2652 23.1054 28.5196 23.2929 28.7071C23.4804 28.8946 23.7348 29 24 29H30C30.2652 29 30.5196 28.8946 30.7071 28.7071C30.8946 28.5196 31 28.2652 31 28V22C31 21.7348 30.8946 21.4804 30.7071 21.2929C30.5196 21.1054 30.2652 21 30 21ZM40 21H34C33.7348 21 33.4804 21.1054 33.2929 21.2929C33.1054 21.4804 33 21.7348 33 22V28C33 28.2652 33.1054 28.5196 33.2929 28.7071C33.4804 28.8946 33.7348 29 34 29H40C40.2652 29 40.5196 28.8946 40.7071 28.7071C40.8946 28.5196 41 28.2652 41 28V22C41 21.7348 40.8946 21.4804 40.7071 21.2929C40.5196 21.1054 40.2652 21 40 21ZM30 31H24C23.7348 31 23.4804 31.1054 23.2929 31.2929C23.1054 31.4804 23 31.7348 23 32V38C23 38.2652 23.1054 38.5196 23.2929 38.7071C23.4804 38.8946 23.7348 39 24 39H30C30.2652 39 30.5196 38.8946 30.7071 38.7071C30.8946 38.5196 31 38.2652 31 38V32C31 31.7348 30.8946 31.4804 30.7071 31.2929C30.5196 31.1054 30.2652 31 30 31ZM38 32H36V34H34V36H36V38H38V36H40V34H38V32Z" fill="white"/>
</g>
<defs>
<clipPath id="clip0_171_658">
<rect width="64" height="64" fill="white"/>
</clipPath>
</defs>
</svg>
