<svg width="64" height="64" viewBox="0 0 64 64" fill="none" xmlns="http://www.w3.org/2000/svg">
<g clip-path="url(#clip0_289_1115)">
<path d="M53.999 10.001H33.999V6.00098C33.999 5.47054 33.7883 4.96184 33.4132 4.58676C33.0382 4.21169 32.5295 4.00098 31.999 4.00098C31.4686 4.00098 30.9599 4.21169 30.5848 4.58676C30.2097 4.96184 29.999 5.47054 29.999 6.00098V10.001H9.99902C8.93853 10.0022 7.92182 10.424 7.17194 11.1739C6.42205 11.9238 6.00024 12.9405 5.99902 14.001V44.001C6.00024 45.0615 6.42205 46.0782 7.17194 46.8281C7.92182 47.5779 8.93853 47.9998 9.99902 48.001H19.8379L14.4373 54.7517C14.2729 54.9568 14.1506 55.1922 14.0773 55.4446C14.0041 55.6969 13.9812 55.9612 14.0101 56.2224C14.0391 56.4836 14.1192 56.7365 14.2459 56.9668C14.3726 57.197 14.5435 57.3999 14.7487 57.5641C14.9539 57.7282 15.1894 57.8503 15.4418 57.9234C15.6943 57.9965 15.9586 58.0191 16.2198 57.9899C16.4809 57.9608 16.7338 57.8805 16.9639 57.7535C17.194 57.6266 17.3968 57.4556 17.5608 57.2502L24.9602 48.001H39.0378L46.4373 57.2502C46.7688 57.6639 47.2509 57.9291 47.7778 57.9874C48.3047 58.0458 48.8332 57.8925 49.2472 57.5614C49.6612 57.2302 49.9268 56.7483 49.9856 56.2214C50.0444 55.6946 49.8916 55.166 49.5608 54.7517L44.1602 48.001H53.999C55.0595 47.9998 56.0762 47.5779 56.8261 46.8281C57.576 46.0782 57.9978 45.0615 57.999 44.001V14.001C57.9978 12.9405 57.576 11.9238 56.8261 11.1739C56.0762 10.424 55.0595 10.0022 53.999 10.001Z" fill="#E0C217"/>
<g clip-path="url(#clip1_289_1115)">
<path d="M25.9995 30.002H21.9995C21.3995 30.002 20.9995 30.402 20.9995 31.002V39.002C20.9995 39.602 21.3995 40.002 21.9995 40.002H25.9995C26.5995 40.002 26.9995 39.602 26.9995 39.002V31.002C26.9995 30.402 26.5995 30.002 25.9995 30.002ZM41.9995 26.002H37.9995C37.3995 26.002 36.9995 26.402 36.9995 27.002V39.002C36.9995 39.602 37.3995 40.002 37.9995 40.002H41.9995C42.5995 40.002 42.9995 39.602 42.9995 39.002V27.002C42.9995 26.402 42.5995 26.002 41.9995 26.002ZM33.9995 18.002H29.9995C29.3995 18.002 28.9995 18.402 28.9995 19.002V39.002C28.9995 39.602 29.3995 40.002 29.9995 40.002H33.9995C34.5995 40.002 34.9995 39.602 34.9995 39.002V19.002C34.9995 18.402 34.5995 18.002 33.9995 18.002Z" fill="white"/>
</g>
</g>
<defs>
<clipPath id="clip0_289_1115">
<rect width="64" height="64" fill="white"/>
</clipPath>
<clipPath id="clip1_289_1115">
<rect width="24" height="24" fill="white" transform="translate(19.999 17)"/>
</clipPath>
</defs>
</svg>
