<svg width="64" height="64" viewBox="0 0 64 64" fill="none" xmlns="http://www.w3.org/2000/svg">
<g clip-path="url(#clip0_289_1124)">
<path d="M53.9995 9.99707H33.9995V5.99707C33.9995 5.46664 33.7888 4.95793 33.4137 4.58286C33.0387 4.20778 32.5299 3.99707 31.9995 3.99707C31.4691 3.99707 30.9604 4.20778 30.5853 4.58286C30.2102 4.95793 29.9995 5.46664 29.9995 5.99707V9.99707H9.99951C8.93902 9.99828 7.92231 10.4201 7.17242 11.17C6.42254 11.9199 6.00072 12.9366 5.99951 13.9971V43.9971C6.00072 45.0576 6.42254 46.0743 7.17242 46.8241C7.92231 47.574 8.93902 47.9958 9.99951 47.9971H19.8384L14.4377 54.7478C14.2734 54.9529 14.1511 55.1883 14.0778 55.4407C14.0045 55.693 13.9817 55.9573 14.0106 56.2185C14.0396 56.4797 14.1197 56.7326 14.2464 56.9628C14.3731 57.1931 14.544 57.396 14.7492 57.5602C14.9544 57.7243 15.1899 57.8464 15.4423 57.9195C15.6948 57.9926 15.9591 58.0152 16.2203 57.986C16.4814 57.9569 16.7343 57.8765 16.9644 57.7496C17.1945 57.6227 17.3973 57.4517 17.5613 57.2463L24.9607 47.9971H39.0383L46.4377 57.2463C46.7692 57.66 47.2514 57.9252 47.7783 57.9835C48.3052 58.0418 48.8337 57.8886 49.2477 57.5575C49.6617 57.2263 49.9272 56.7444 49.986 56.2175C50.0448 55.6907 49.8921 55.162 49.5613 54.7478L44.1606 47.9971H53.9995C55.06 47.9958 56.0767 47.574 56.8266 46.8241C57.5765 46.0743 57.9983 45.0576 57.9995 43.9971V13.9971C57.9983 12.9366 57.5765 11.9199 56.8266 11.17C56.0767 10.4201 55.06 9.99828 53.9995 9.99707Z" fill="#36B28F"/>
<path d="M21.8889 40C21.0944 40 20.4146 39.7391 19.8493 39.2173C19.2841 38.6956 19.001 38.0676 19 37.3333V18.6667C19 17.9333 19.2831 17.3058 19.8493 16.784C20.4156 16.2622 21.0954 16.0009 21.8889 16H42.1111C42.9056 16 43.5859 16.2613 44.1521 16.784C44.7183 17.3067 45.001 17.9342 45 18.6667V37.3333C45 38.0667 44.7174 38.6947 44.1521 39.2173C43.5868 39.74 42.9065 40.0009 42.1111 40H21.8889ZM24.7778 34.6667H39.2222C39.5111 34.6667 39.7278 34.5444 39.8722 34.3C40.0167 34.0556 39.9926 33.8222 39.8 33.6L35.8278 28.7C35.6833 28.5222 35.4907 28.4333 35.25 28.4333C35.0093 28.4333 34.8167 28.5222 34.6722 28.7L30.9167 33.3333L28.2444 30.0333C28.1 29.8556 27.9074 29.7667 27.6667 29.7667C27.4259 29.7667 27.2333 29.8556 27.0889 30.0333L24.2 33.6C24.0074 33.8222 23.9833 34.0556 24.1278 34.3C24.2722 34.5444 24.4889 34.6667 24.7778 34.6667ZM26.9444 25.3333C27.5463 25.3333 28.0581 25.1387 28.4799 24.7493C28.9017 24.36 29.1121 23.888 29.1111 23.3333C29.1101 22.7787 28.8997 22.3067 28.4799 21.9173C28.06 21.528 27.5482 21.3333 26.9444 21.3333C26.3407 21.3333 25.8293 21.528 25.4104 21.9173C24.9916 22.3067 24.7807 22.7787 24.7778 23.3333C24.7749 23.888 24.9858 24.3604 25.4104 24.7507C25.8351 25.1409 26.3464 25.3351 26.9444 25.3333Z" fill="white"/>
</g>
<defs>
<clipPath id="clip0_289_1124">
<rect width="64" height="64" fill="white"/>
</clipPath>
</defs>
</svg>
