<svg width="64" height="64" viewBox="0 0 64 64" fill="none" xmlns="http://www.w3.org/2000/svg">
<path d="M54 10H34V6C34 5.46957 33.7893 4.96086 33.4142 4.58579C33.0391 4.21071 32.5304 4 32 4C31.4696 4 30.9609 4.21071 30.5858 4.58579C30.2107 4.96086 30 5.46957 30 6V10H10C8.93951 10.0012 7.9228 10.423 7.17291 11.1729C6.42303 11.9228 6.00121 12.9395 6 14V44C6.00121 45.0605 6.42303 46.0772 7.17291 46.8271C7.9228 47.577 8.93951 47.9988 10 48H19.8389L14.4382 54.7507C14.2739 54.9558 14.1516 55.1912 14.0783 55.4436C14.005 55.696 13.9822 55.9603 14.0111 56.2215C14.04 56.4826 14.1202 56.7356 14.2469 56.9658C14.3736 57.196 14.5444 57.399 14.7497 57.5631C14.9549 57.7273 15.1904 57.8494 15.4428 57.9224C15.6952 57.9955 15.9596 58.0181 16.2208 57.989C16.4819 57.9598 16.7348 57.8795 16.9649 57.7526C17.195 57.6256 17.3978 57.4546 17.5618 57.2493L24.9612 48H39.0388L46.4382 57.2493C46.7697 57.663 47.2519 57.9281 47.7788 57.9864C48.3057 58.0448 48.8342 57.8916 49.2482 57.5604C49.6622 57.2293 49.9277 56.7473 49.9865 56.2205C50.0453 55.6936 49.8925 55.165 49.5618 54.7507L44.1611 48H54C55.0605 47.9988 56.0772 47.577 56.8271 46.8271C57.577 46.0772 57.9988 45.0605 58 44V14C57.9988 12.9395 57.577 11.9228 56.8271 11.1729C56.0772 10.423 55.0605 10.0012 54 10Z" fill="#7036B3"/>
<path d="M28.4997 26.8333C29.4227 26.8333 30.3249 26.5596 31.0923 26.0469C31.8598 25.5341 32.4579 24.8052 32.8111 23.9525C33.1643 23.0998 33.2567 22.1615 33.0767 21.2562C32.8966 20.351 32.4522 19.5195 31.7995 18.8668C31.1469 18.2142 30.3153 17.7697 29.4101 17.5897C28.5049 17.4096 27.5665 17.502 26.7138 17.8552C25.8611 18.2084 25.1323 18.8066 24.6195 19.574C24.1067 20.3414 23.833 21.2437 23.833 22.1667C23.833 23.4043 24.3247 24.5913 25.1998 25.4665C26.075 26.3417 27.262 26.8333 28.4997 26.8333ZM37.833 29.1667C38.5252 29.1667 39.2019 28.9614 39.7775 28.5768C40.3531 28.1922 40.8017 27.6456 41.0666 27.0061C41.3315 26.3665 41.4008 25.6628 41.2658 24.9839C41.1307 24.3049 40.7974 23.6813 40.3079 23.1918C39.8184 22.7023 39.1948 22.369 38.5158 22.2339C37.8369 22.0989 37.1332 22.1682 36.4936 22.4331C35.8541 22.698 35.3074 23.1466 34.9229 23.7222C34.5383 24.2977 34.333 24.9744 34.333 25.6667C34.333 26.5949 34.7018 27.4852 35.3581 28.1415C36.0145 28.7979 36.9047 29.1667 37.833 29.1667ZM42.4997 37.3333C42.8091 37.3333 43.1058 37.2104 43.3246 36.9916C43.5434 36.7728 43.6663 36.4761 43.6663 36.1667C43.6654 35.0763 43.3589 34.008 42.7816 33.083C42.2042 32.158 41.3792 31.4134 40.4001 30.9335C39.421 30.4537 38.327 30.2579 37.2422 30.3683C36.1574 30.4788 35.1253 30.891 34.263 31.5583C33.1203 30.4201 31.6661 29.6457 30.0838 29.3328C28.5015 29.02 26.862 29.1826 25.3721 29.8003C23.8822 30.418 22.6085 31.4631 21.7117 32.8037C20.8149 34.1443 20.3352 35.7204 20.333 37.3333C20.333 37.6428 20.4559 37.9395 20.6747 38.1583C20.8935 38.3771 21.1903 38.5 21.4997 38.5H35.4997C35.8091 38.5 36.1058 38.3771 36.3246 38.1583C36.5434 37.9395 36.6663 37.6428 36.6663 37.3333" fill="white"/>
</svg>
