<svg width="65" height="64" viewBox="0 0 65 64" fill="none" xmlns="http://www.w3.org/2000/svg">
<g clip-path="url(#clip0_289_1098)">
<path d="M54.4743 9.99805H34.2988V5.99805C34.2988 5.46761 34.0863 4.95891 33.7079 4.58383C33.3295 4.20876 32.8164 3.99805 32.2813 3.99805C31.7462 3.99805 31.233 4.20876 30.8547 4.58383C30.4763 4.95891 30.2637 5.46761 30.2637 5.99805V9.99805H10.0883C9.01851 9.99926 7.99288 10.4211 7.23642 11.171C6.47996 11.9208 6.05445 12.9376 6.05322 13.998V43.998C6.05445 45.0585 6.47996 46.0752 7.23642 46.8251C7.99288 47.575 9.01851 47.9968 10.0883 47.998H20.0135L14.5655 54.7488C14.3997 54.9538 14.2763 55.1893 14.2024 55.4416C14.1285 55.694 14.1054 55.9583 14.1346 56.2195C14.1638 56.4807 14.2446 56.7336 14.3724 56.9638C14.5003 57.194 14.6726 57.397 14.8796 57.5612C15.0866 57.7253 15.3242 57.8474 15.5789 57.9205C15.8335 57.9935 16.1002 58.0161 16.3636 57.987C16.6271 57.9579 16.8822 57.8775 17.1143 57.7506C17.3464 57.6237 17.551 57.4527 17.7164 57.2473L25.1807 47.998H39.3819L46.8462 57.2473C47.1806 57.661 47.667 57.9261 48.1985 57.9845C48.73 58.0428 49.2632 57.8896 49.6808 57.5585C50.0984 57.2273 50.3663 56.7454 50.4256 56.2185C50.4849 55.6917 50.3308 55.163 49.9971 54.7488L44.5491 47.998H54.4743C55.5441 47.9968 56.5697 47.575 57.3262 46.8251C58.0826 46.0752 58.5081 45.0585 58.5094 43.998V13.998C58.5081 12.9376 58.0826 11.9208 57.3262 11.171C56.5697 10.4211 55.5441 9.99926 54.4743 9.99805Z" fill="#368BB2"/>
<g clip-path="url(#clip1_289_1098)">
<path fill-rule="evenodd" clip-rule="evenodd" d="M30.6105 16.8105C30.2845 16.8105 29.9717 16.939 29.7412 17.1675C29.5106 17.3961 29.3811 17.7061 29.3811 18.0293V39.9668C29.3811 40.29 29.5106 40.6 29.7412 40.8286C29.9717 41.0571 30.2845 41.1855 30.6105 41.1855C30.9366 41.1855 31.2493 41.0571 31.4799 40.8286C31.7104 40.6 31.84 40.29 31.84 39.9668V18.0293C31.84 17.7061 31.7104 17.3961 31.4799 17.1675C31.2493 16.939 30.9366 16.8105 30.6105 16.8105ZM27.332 22.498C27.332 23.0368 27.1161 23.5534 26.7319 23.9344C26.3476 24.3153 25.8264 24.5293 25.283 24.5293C24.7395 24.5293 24.2183 24.3153 23.834 23.9344C23.4498 23.5534 23.2339 23.0368 23.2339 22.498C23.2339 21.9593 23.4498 21.4427 23.834 21.0617C24.2183 20.6808 24.7395 20.4668 25.283 20.4668C25.8264 20.4668 26.3476 20.6808 26.7319 21.0617C27.1161 21.4427 27.332 21.9593 27.332 22.498ZM33.889 22.498C33.889 22.1748 34.0186 21.8648 34.2491 21.6363C34.4797 21.4077 34.7924 21.2793 35.1185 21.2793H44.5442C44.8703 21.2793 45.183 21.4077 45.4135 21.6363C45.6441 21.8648 45.7736 22.1748 45.7736 22.498C45.7736 22.8213 45.6441 23.1313 45.4135 23.3598C45.183 23.5884 44.8703 23.7168 44.5442 23.7168H35.1185C34.7924 23.7168 34.4797 23.5884 34.2491 23.3598C34.0186 23.1313 33.889 22.8213 33.889 22.498ZM33.889 35.498C33.889 35.1748 34.0186 34.8648 34.2491 34.6363C34.4797 34.4077 34.7924 34.2793 35.1185 34.2793H44.5442C44.8703 34.2793 45.183 34.4077 45.4135 34.6363C45.6441 34.8648 45.7736 35.1748 45.7736 35.498C45.7736 35.8213 45.6441 36.1313 45.4135 36.3598C45.183 36.5884 44.8703 36.7168 44.5442 36.7168H35.1185C34.7924 36.7168 34.4797 36.5884 34.2491 36.3598C34.0186 36.1313 33.889 35.8213 33.889 35.498ZM35.1185 27.7793C34.7924 27.7793 34.4797 27.9077 34.2491 28.1363C34.0186 28.3648 33.889 28.6748 33.889 28.998C33.889 29.3213 34.0186 29.6313 34.2491 29.8598C34.4797 30.0884 34.7924 30.2168 35.1185 30.2168H44.5442C44.8703 30.2168 45.183 30.0884 45.4135 29.8598C45.6441 29.6313 45.7736 29.3213 45.7736 28.998C45.7736 28.6748 45.6441 28.3648 45.4135 28.1363C45.183 27.9077 44.8703 27.7793 44.5442 27.7793H35.1185ZM25.283 31.0293C25.8264 31.0293 26.3476 30.8153 26.7319 30.4344C27.1161 30.0534 27.332 29.5368 27.332 28.998C27.332 28.4593 27.1161 27.9427 26.7319 27.5617C26.3476 27.1808 25.8264 26.9668 25.283 26.9668C24.7395 26.9668 24.2183 27.1808 23.834 27.5617C23.4498 27.9427 23.2339 28.4593 23.2339 28.998C23.2339 29.5368 23.4498 30.0534 23.834 30.4344C24.2183 30.8153 24.7395 31.0293 25.283 31.0293ZM27.332 35.498C27.332 36.0368 27.1161 36.5534 26.7319 36.9344C26.3476 37.3153 25.8264 37.5293 25.283 37.5293C24.7395 37.5293 24.2183 37.3153 23.834 36.9344C23.4498 36.5534 23.2339 36.0368 23.2339 35.498C23.2339 34.9593 23.4498 34.4427 23.834 34.0617C24.2183 33.6808 24.7395 33.4668 25.283 33.4668C25.8264 33.4668 26.3476 33.6808 26.7319 34.0617C27.1161 34.4427 27.332 34.9593 27.332 35.498Z" fill="white"/>
</g>
</g>
<defs>
<clipPath id="clip0_289_1098">
<rect width="64.5614" height="64" fill="white"/>
</clipPath>
<clipPath id="clip1_289_1098">
<rect width="26.2281" height="26" fill="white" transform="translate(21.1851 15.999)"/>
</clipPath>
</defs>
</svg>
