<svg width="64" height="64" viewBox="0 0 64 64" fill="none" xmlns="http://www.w3.org/2000/svg">
<path d="M54 10H34V6C34 5.46957 33.7893 4.96086 33.4142 4.58579C33.0391 4.21071 32.5304 4 32 4C31.4696 4 30.9609 4.21071 30.5858 4.58579C30.2107 4.96086 30 5.46957 30 6V10H10C8.93951 10.0012 7.9228 10.423 7.17291 11.1729C6.42303 11.9228 6.00121 12.9395 6 14V44C6.00121 45.0605 6.42303 46.0772 7.17291 46.8271C7.9228 47.577 8.93951 47.9988 10 48H19.8389L14.4382 54.7507C14.2739 54.9558 14.1516 55.1912 14.0783 55.4436C14.005 55.696 13.9822 55.9603 14.0111 56.2215C14.04 56.4826 14.1202 56.7356 14.2469 56.9658C14.3736 57.196 14.5444 57.399 14.7497 57.5631C14.9549 57.7273 15.1904 57.8494 15.4428 57.9224C15.6952 57.9955 15.9596 58.0181 16.2208 57.989C16.4819 57.9598 16.7348 57.8795 16.9649 57.7526C17.195 57.6256 17.3978 57.4546 17.5618 57.2493L24.9612 48H39.0388L46.4382 57.2493C46.7697 57.663 47.2519 57.9281 47.7788 57.9864C48.3057 58.0448 48.8342 57.8916 49.2482 57.5604C49.6622 57.2293 49.9277 56.7473 49.9865 56.2205C50.0453 55.6936 49.8925 55.165 49.5618 54.7507L44.1611 48H54C55.0605 47.9988 56.0772 47.577 56.8271 46.8271C57.577 46.0772 57.9988 45.0605 58 44V14C57.9988 12.9395 57.577 11.9228 56.8271 11.1729C56.0772 10.423 55.0605 10.0012 54 10Z" fill="#3667B3"/>
<path d="M17.6431 50.5048C17.3538 50.8208 16.9608 50.9989 16.5506 51C16.1404 51.0011 15.7465 50.8251 15.4558 50.5108C15.165 50.1964 15.001 49.7695 15 49.3238C14.999 48.8781 15.161 48.4503 15.4503 48.1344L34.3569 27.4951C34.6462 27.1792 35.0392 27.0011 35.4494 27C35.8596 26.9989 36.2535 27.1749 36.5442 27.4892C36.835 27.8036 36.999 28.2305 37 28.6762C37.001 29.1219 36.8391 29.5497 36.5497 29.8656L17.6431 50.5048Z" fill="white"/>
<path fill-rule="evenodd" clip-rule="evenodd" d="M44.47 24.5774C44.4067 24.2829 44.2619 24.012 44.0522 23.7956C43.8425 23.5793 43.5762 23.4262 43.2837 23.3538C42.528 23.1469 41.7944 22.8666 41.0932 22.5169C40.9431 22.4471 40.8161 22.3358 40.7271 22.1961C40.6381 22.0565 40.5908 21.8944 40.5908 21.7288C40.5908 21.5632 40.6381 21.4011 40.7271 21.2615C40.8161 21.1219 40.9431 21.0106 41.0932 20.9407C41.7944 20.5916 42.5281 20.3119 43.2837 20.1054C43.5762 20.033 43.8425 19.88 44.0522 19.6636C44.2619 19.4473 44.4067 19.1764 44.47 18.8818C44.652 17.9767 44.9477 16.8587 45.3962 15.7667C45.4494 15.6156 45.5481 15.4848 45.6788 15.3923C45.8095 15.2997 45.9657 15.25 46.1258 15.25C46.286 15.25 46.4422 15.2997 46.5729 15.3923C46.7036 15.4848 46.8023 15.6156 46.8555 15.7667C47.304 16.8587 47.5997 17.9767 47.7801 18.8818C47.8451 19.1756 47.9905 19.4456 48.1999 19.6616C48.4094 19.8777 48.6747 20.0313 48.9663 20.1054C49.6277 20.2793 50.3427 20.5491 51.1471 20.9407C51.8133 21.2657 51.8133 22.1919 51.1471 22.5169C50.4495 22.867 49.719 23.1473 48.9663 23.3538C48.6749 23.4278 48.4097 23.5812 48.2003 23.797C47.9909 24.0127 47.8454 24.2823 47.7801 24.5758C47.5703 25.6416 47.2602 26.6852 46.8538 27.6926C46.8003 27.8431 46.7016 27.9733 46.5711 28.0654C46.4406 28.1575 46.2848 28.207 46.125 28.207C45.9653 28.207 45.8095 28.1575 45.679 28.0654C45.5485 27.9733 45.4497 27.8431 45.3962 27.6926C44.9908 26.6849 44.6807 25.643 44.47 24.5774Z" fill="white"/>
<path fill-rule="evenodd" clip-rule="evenodd" d="M26.1759 23.8579C26.1284 23.6374 26.0199 23.4346 25.8627 23.2729C25.7055 23.1111 25.506 22.9968 25.287 22.943C24.7224 22.7891 24.1743 22.5801 23.6506 22.319C23.5385 22.2667 23.4436 22.1835 23.3772 22.0791C23.3107 21.9748 23.2754 21.8536 23.2754 21.7299C23.2754 21.6062 23.3107 21.4851 23.3772 21.3807C23.4436 21.2764 23.5385 21.1932 23.6506 21.1409C24.2535 20.8484 24.7914 20.6452 25.287 20.5152C25.5058 20.4616 25.7052 20.3475 25.8624 20.1861C26.0195 20.0246 26.1281 19.8222 26.1759 19.602C26.3091 18.9244 26.5317 18.0907 26.8665 17.2717C26.9065 17.1591 26.9803 17.0616 27.078 16.9927C27.1756 16.9237 27.2922 16.8867 27.4117 16.8867C27.5312 16.8867 27.6478 16.9237 27.7454 16.9927C27.843 17.0616 27.9169 17.1591 27.9569 17.2717C28.2916 18.0891 28.5126 18.9244 28.6475 19.602C28.6951 19.822 28.8035 20.0242 28.9603 20.1857C29.1172 20.3471 29.3162 20.4613 29.5347 20.5152C30.0304 20.6452 30.5634 20.8467 31.1646 21.1409C31.2767 21.1932 31.3716 21.2764 31.4381 21.3807C31.5045 21.4851 31.5398 21.6062 31.5398 21.7299C31.5398 21.8536 31.5045 21.9748 31.4381 22.0791C31.3716 22.1835 31.2767 22.2667 31.1646 22.319C30.643 22.5797 30.0971 22.7887 29.5347 22.943C29.316 22.997 29.1168 23.1115 28.9599 23.2732C28.8031 23.435 28.6948 23.6376 28.6475 23.8579C28.5126 24.5355 28.2916 25.3691 27.9569 26.1865C27.9169 26.2991 27.843 26.3966 27.7454 26.4656C27.6478 26.5345 27.5312 26.5715 27.4117 26.5715C27.2922 26.5715 27.1756 26.5345 27.078 26.4656C26.9803 26.3966 26.9065 26.2991 26.8665 26.1865C26.5641 25.4335 26.3329 24.6539 26.1759 23.8579Z" fill="white"/>
<path fill-rule="evenodd" clip-rule="evenodd" d="M41.7142 41.6824C41.6668 41.4621 41.5586 41.2596 41.4017 41.0978C41.2448 40.936 41.0457 40.8216 40.8269 40.7676C40.2617 40.6132 39.7131 40.4037 39.1889 40.1419C39.0772 40.0894 38.9828 40.0063 38.9167 39.9021C38.8505 39.7979 38.8154 39.6771 38.8154 39.5537C38.8154 39.4303 38.8505 39.3095 38.9167 39.2053C38.9828 39.1011 39.0772 39.0179 39.1889 38.9654C39.7934 38.6729 40.3297 38.4698 40.8269 38.3398C41.0457 38.2858 41.2448 38.1713 41.4017 38.0096C41.5586 37.8478 41.6668 37.6452 41.7142 37.4249C41.849 36.7489 42.0717 35.9137 42.4048 35.0963C42.4444 34.9831 42.5183 34.885 42.6161 34.8157C42.7139 34.7463 42.8309 34.709 42.9508 34.709C43.0707 34.709 43.1877 34.7463 43.2855 34.8157C43.3833 34.885 43.4572 34.9831 43.4968 35.0963C43.8315 35.9137 44.0525 36.7489 44.1874 37.4249C44.2347 37.6452 44.343 37.8478 44.4999 38.0096C44.6567 38.1713 44.8559 38.2858 45.0747 38.3398C45.5687 38.4698 46.1017 38.6713 46.7029 38.9638C46.8155 39.0159 46.9108 39.0991 46.9776 39.2037C47.0444 39.3082 47.0799 39.4296 47.0799 39.5537C47.0799 39.6777 47.0444 39.7992 46.9776 39.9037C46.9108 40.0082 46.8155 40.0915 46.7029 40.1436C46.1818 40.4041 45.6365 40.6131 45.0747 40.7676C44.8559 40.8216 44.6567 40.936 44.4999 41.0978C44.343 41.2596 44.2347 41.4621 44.1874 41.6824C44.0304 42.4785 43.7992 43.2581 43.4968 44.0111C43.4572 44.1243 43.3833 44.2223 43.2855 44.2917C43.1877 44.3611 43.0707 44.3984 42.9508 44.3984C42.8309 44.3984 42.7139 44.3611 42.6161 44.2917C42.5183 44.2223 42.4444 44.1243 42.4048 44.0111C42.1024 43.2581 41.8712 42.4785 41.7142 41.6824Z" fill="white"/>
<path d="M49.7316 35.0638C50.8463 35.0638 51.7499 34.1602 51.7499 33.0456C51.7499 31.9309 50.8463 31.0273 49.7316 31.0273C48.617 31.0273 47.7134 31.9309 47.7134 33.0456C47.7134 34.1602 48.617 35.0638 49.7316 35.0638Z" fill="url(#paint0_radial_171_666)"/>
<path d="M49.7316 35.0638C50.8463 35.0638 51.7499 34.1602 51.7499 33.0456C51.7499 31.9309 50.8463 31.0273 49.7316 31.0273C48.617 31.0273 47.7134 31.9309 47.7134 33.0456C47.7134 34.1602 48.617 35.0638 49.7316 35.0638Z" fill="white"/>
<path d="M33.9123 48.3431C35.0269 48.3431 35.9305 47.4395 35.9305 46.3249C35.9305 45.2102 35.0269 44.3066 33.9123 44.3066C32.7976 44.3066 31.894 45.2102 31.894 46.3249C31.894 47.4395 32.7976 48.3431 33.9123 48.3431Z" fill="url(#paint1_radial_171_666)"/>
<path d="M33.9123 48.3431C35.0269 48.3431 35.9305 47.4395 35.9305 46.3249C35.9305 45.2102 35.0269 44.3066 33.9123 44.3066C32.7976 44.3066 31.894 45.2102 31.894 46.3249C31.894 47.4395 32.7976 48.3431 33.9123 48.3431Z" fill="white"/>
<path d="M22.5861 35.3265C23.6568 35.3265 24.5247 34.4585 24.5247 33.3878C24.5247 32.3172 23.6568 31.4492 22.5861 31.4492C21.5154 31.4492 20.6475 32.3172 20.6475 33.3878C20.6475 34.4585 21.5154 35.3265 22.5861 35.3265Z" fill="url(#paint2_radial_171_666)"/>
<path d="M22.5861 35.3265C23.6568 35.3265 24.5247 34.4585 24.5247 33.3878C24.5247 32.3172 23.6568 31.4492 22.5861 31.4492C21.5154 31.4492 20.6475 32.3172 20.6475 33.3878C20.6475 34.4585 21.5154 35.3265 22.5861 35.3265Z" fill="white"/>
<path d="M33.9452 18.5046C34.839 18.5046 35.5637 17.78 35.5637 16.8861C35.5637 15.9922 34.839 15.2676 33.9452 15.2676C33.0513 15.2676 32.3267 15.9922 32.3267 16.8861C32.3267 17.78 33.0513 18.5046 33.9452 18.5046Z" fill="url(#paint3_radial_171_666)"/>
<path d="M33.9452 18.5046C34.839 18.5046 35.5637 17.78 35.5637 16.8861C35.5637 15.9922 34.839 15.2676 33.9452 15.2676C33.0513 15.2676 32.3267 15.9922 32.3267 16.8861C32.3267 17.78 33.0513 18.5046 33.9452 18.5046Z" fill="white"/>
<g filter="url(#filter0_i_171_666)">
<path d="M7.28669 59.8152C8.18532 60.7139 9.64294 60.7122 10.5416 59.812L13.2878 57.0527L10.0264 53.8125L7.28344 56.5701C6.8543 57.0013 6.61365 57.585 6.61426 58.1934C6.61487 58.8017 6.85669 59.3849 7.28669 59.8152Z" fill="#CFC6DD"/>
<path d="M7.28669 59.8152C8.18532 60.7139 9.64294 60.7122 10.5416 59.812L13.2878 57.0527L10.0264 53.8125L7.28344 56.5701C6.8543 57.0013 6.61365 57.585 6.61426 58.1934C6.61487 58.8017 6.85669 59.3849 7.28669 59.8152Z" fill="url(#paint4_linear_171_666)"/>
</g>
<path d="M7.28669 59.8152C8.18532 60.7139 9.64294 60.7122 10.5416 59.812L13.2878 57.0527L10.0264 53.8125L7.28344 56.5701C6.8543 57.0013 6.61365 57.585 6.61426 58.1934C6.61487 58.8017 6.85669 59.3849 7.28669 59.8152Z" fill="white"/>
<defs>
<filter id="filter0_i_171_666" x="6.57363" y="53.6094" width="6.71396" height="6.87891" filterUnits="userSpaceOnUse" color-interpolation-filters="sRGB">
<feFlood flood-opacity="0" result="BackgroundImageFix"/>
<feBlend mode="normal" in="SourceGraphic" in2="BackgroundImageFix" result="shape"/>
<feColorMatrix in="SourceAlpha" type="matrix" values="0 0 0 0 0 0 0 0 0 0 0 0 0 0 0 0 0 0 127 0" result="hardAlpha"/>
<feOffset dx="-0.040625" dy="-0.203125"/>
<feGaussianBlur stdDeviation="0.203125"/>
<feComposite in2="hardAlpha" operator="arithmetic" k2="-1" k3="1"/>
<feColorMatrix type="matrix" values="0 0 0 0 0.698039 0 0 0 0 0.619608 0 0 0 0 0.792157 0 0 0 1 0"/>
<feBlend mode="normal" in2="shape" result="effect1_innerShadow_171_666"/>
</filter>
<radialGradient id="paint0_radial_171_666" cx="0" cy="0" r="1" gradientUnits="userSpaceOnUse" gradientTransform="translate(50.6254 32.2526) rotate(127.823) scale(3.04645 2.84933)">
<stop stop-color="#FFD463"/>
<stop offset="1" stop-color="#E68F2B"/>
</radialGradient>
<radialGradient id="paint1_radial_171_666" cx="0" cy="0" r="1" gradientUnits="userSpaceOnUse" gradientTransform="translate(34.8077 45.5303) rotate(127.823) scale(3.04645 2.84933)">
<stop stop-color="#FFD463"/>
<stop offset="1" stop-color="#E68F2B"/>
</radialGradient>
<radialGradient id="paint2_radial_171_666" cx="0" cy="0" r="1" gradientUnits="userSpaceOnUse" gradientTransform="translate(23.4447 32.6267) rotate(127.823) scale(2.92671 2.73733)">
<stop stop-color="#FFD463"/>
<stop offset="1" stop-color="#E68F2B"/>
</radialGradient>
<radialGradient id="paint3_radial_171_666" cx="0" cy="0" r="1" gradientUnits="userSpaceOnUse" gradientTransform="translate(34.6618 16.2491) rotate(127.823) scale(2.44292 2.28485)">
<stop stop-color="#FFD463"/>
<stop offset="1" stop-color="#E68F2B"/>
</radialGradient>
<linearGradient id="paint4_linear_171_666" x1="8.33482" y1="55.2002" x2="9.95007" y2="56.8139" gradientUnits="userSpaceOnUse">
<stop stop-color="#A8A6AD"/>
<stop offset="1" stop-color="#A8A6AD" stop-opacity="0"/>
</linearGradient>
</defs>
</svg>
