<svg width="64" height="64" viewBox="0 0 64 64" fill="none" xmlns="http://www.w3.org/2000/svg">
<g clip-path="url(#clip0_171_649)">
<path d="M54 10H34V6C34 5.46957 33.7893 4.96086 33.4142 4.58579C33.0391 4.21071 32.5304 4 32 4C31.4696 4 30.9609 4.21071 30.5858 4.58579C30.2107 4.96086 30 5.46957 30 6V10H10C8.93951 10.0012 7.9228 10.423 7.17291 11.1729C6.42303 11.9228 6.00121 12.9395 6 14V44C6.00121 45.0605 6.42303 46.0772 7.17291 46.8271C7.9228 47.577 8.93951 47.9988 10 48H19.8389L14.4382 54.7507C14.2739 54.9558 14.1516 55.1912 14.0783 55.4436C14.005 55.696 13.9822 55.9603 14.0111 56.2215C14.04 56.4826 14.1202 56.7356 14.2469 56.9658C14.3736 57.196 14.5444 57.399 14.7497 57.5631C14.9549 57.7273 15.1904 57.8494 15.4428 57.9224C15.6952 57.9955 15.9596 58.0181 16.2208 57.989C16.4819 57.9598 16.7348 57.8795 16.9649 57.7526C17.195 57.6256 17.3978 57.4546 17.5618 57.2493L24.9612 48H39.0388L46.4382 57.2493C46.7697 57.663 47.2519 57.9281 47.7788 57.9864C48.3057 58.0448 48.8342 57.8916 49.2482 57.5604C49.6622 57.2293 49.9277 56.7473 49.9865 56.2205C50.0453 55.6936 49.8925 55.165 49.5618 54.7507L44.1611 48H54C55.0605 47.9988 56.0772 47.577 56.8271 46.8271C57.577 46.0772 57.9988 45.0605 58 44V14C57.9988 12.9395 57.577 11.9228 56.8271 11.1729C56.0772 10.423 55.0605 10.0012 54 10Z" fill="#368BB2"/>
<path d="M41.75 29V37.26C41.75 37.68 41.54 38.06 41.2 38.3C40.99 38.44 40.74 38.52 40.5 38.52C40.34 38.52 40.18 38.49 40.04 38.43L36.94 36.79C36.68 36.77 36 36.75 35.81 36.75H31C29.48 36.75 28.25 35.52 28.25 34V32.92H35.25C37.49 32.92 39.25 30.76 39.25 28V26.26C40.65 26.39 41.75 27.56 41.75 29ZM37.75 22.666V27.999C37.75 29.915 36.652 31.416 35.25 31.416H26.84L24.265 34.359C24.041 34.614 23.745 34.751 23.441 34.751C23.317 34.751 23.193 34.729 23.071 34.683C22.573 34.495 22.251 33.965 22.251 33.332V22.666C22.251 20.751 23.349 19.25 24.751 19.25H35.251C36.653 19.25 37.75 20.751 37.75 22.666ZM34.75 27C34.75 26.586 34.414 26.25 34 26.25H26C25.586 26.25 25.25 26.586 25.25 27C25.25 27.414 25.586 27.75 26 27.75H34C34.414 27.75 34.75 27.414 34.75 27ZM34.75 24C34.75 23.586 34.414 23.25 34 23.25H26C25.586 23.25 25.25 23.586 25.25 24C25.25 24.414 25.586 24.75 26 24.75H34C34.414 24.75 34.75 24.414 34.75 24Z" fill="white"/>
</g>
<defs>
<clipPath id="clip0_171_649">
<rect width="64" height="64" fill="white"/>
</clipPath>
</defs>
</svg>
