<svg width="64" height="64" viewBox="0 0 64 64" fill="none" xmlns="http://www.w3.org/2000/svg">
<g clip-path="url(#clip0_289_1107)">
<path d="M54.002 10.001H34.002V6.00098C34.002 5.47054 33.7912 4.96184 33.4162 4.58676C33.0411 4.21169 32.5324 4.00098 32.002 4.00098C31.4715 4.00098 30.9628 4.21169 30.5877 4.58676C30.2127 4.96184 30.002 5.47054 30.002 6.00098V10.001H10.002C8.94146 10.0022 7.92475 10.424 7.17487 11.1739C6.42498 11.9238 6.00317 12.9405 6.00195 14.001V44.001C6.00317 45.0615 6.42498 46.0782 7.17487 46.8281C7.92475 47.5779 8.94146 47.9998 10.002 48.001H19.8408L14.4402 54.7517C14.2759 54.9568 14.1536 55.1922 14.0803 55.4446C14.007 55.6969 13.9842 55.9613 14.0131 56.2224C14.042 56.4836 14.1221 56.7365 14.2488 56.9668C14.3756 57.197 14.5464 57.3999 14.7516 57.5641C14.9568 57.7282 15.1924 57.8503 15.4448 57.9234C15.6972 57.9965 15.9615 58.0191 16.2227 57.9899C16.4839 57.9608 16.7367 57.8805 16.9668 57.7535C17.1969 57.6266 17.3998 57.4556 17.5637 57.2502L24.9631 48.001H39.0408L46.4402 57.2502C46.7717 57.6639 47.2539 57.9291 47.7808 57.9874C48.3077 58.0458 48.8362 57.8925 49.2501 57.5614C49.6641 57.2303 49.9297 56.7483 49.9885 56.2215C50.0473 55.6946 49.8945 55.166 49.5637 54.7517L44.1631 48.001H54.002C55.0625 47.9998 56.0792 47.5779 56.829 46.8281C57.5789 46.0782 58.0007 45.0615 58.002 44.001V14.001C58.0007 12.9405 57.5789 11.9238 56.829 11.1739C56.0792 10.424 55.0625 10.0022 54.002 10.001Z" fill="#CE6C20"/>
<path d="M14.0015 36.001L17.9785 31.33C18.3203 30.9286 18.9576 30.9917 19.214 31.4523L22.6044 37.5429C22.9204 38.1106 23.7582 38.0411 23.9763 37.429L29.3566 22.3314C29.5592 21.7628 30.3138 21.6496 30.6743 22.1337L40.2458 34.9863C40.5873 35.4449 41.2947 35.3726 41.5365 34.8545L48.0015 21.001" stroke="white" stroke-width="1.88889" stroke-linecap="round"/>
</g>
<defs>
<clipPath id="clip0_289_1107">
<rect width="64" height="64" fill="white"/>
</clipPath>
</defs>
</svg>
