<svg width="64" height="64" viewBox="0 0 64 64" fill="none" xmlns="http://www.w3.org/2000/svg">
<g clip-path="url(#clip0_289_1132)">
<path d="M53.9995 9.99707H33.9995V5.99707C33.9995 5.46664 33.7888 4.95793 33.4137 4.58286C33.0387 4.20778 32.5299 3.99707 31.9995 3.99707C31.4691 3.99707 30.9604 4.20778 30.5853 4.58286C30.2102 4.95793 29.9995 5.46664 29.9995 5.99707V9.99707H9.99951C8.93902 9.99828 7.92231 10.4201 7.17242 11.17C6.42254 11.9199 6.00072 12.9366 5.99951 13.9971V43.9971C6.00072 45.0576 6.42254 46.0743 7.17242 46.8242C7.92231 47.574 8.93902 47.9959 9.99951 47.9971H19.8384L14.4377 54.7478C14.2734 54.9529 14.1511 55.1883 14.0778 55.4407C14.0045 55.693 13.9817 55.9573 14.0106 56.2185C14.0396 56.4797 14.1197 56.7326 14.2464 56.9628C14.3731 57.1931 14.544 57.396 14.7492 57.5602C14.9544 57.7243 15.1899 57.8464 15.4423 57.9195C15.6948 57.9926 15.9591 58.0152 16.2203 57.986C16.4814 57.9569 16.7343 57.8765 16.9644 57.7496C17.1945 57.6227 17.3973 57.4517 17.5613 57.2463L24.9607 47.9971H39.0383L46.4377 57.2463C46.7692 57.66 47.2514 57.9252 47.7783 57.9835C48.3052 58.0419 48.8337 57.8886 49.2477 57.5575C49.6617 57.2263 49.9272 56.7444 49.986 56.2175C50.0448 55.6907 49.8921 55.1621 49.5613 54.7478L44.1606 47.9971H53.9995C55.06 47.9959 56.0767 47.574 56.8266 46.8242C57.5765 46.0743 57.9983 45.0576 57.9995 43.9971V13.9971C57.9983 12.9366 57.5765 11.9199 56.8266 11.17C56.0767 10.4201 55.06 9.99828 53.9995 9.99707Z" fill="#36B236"/>
<g clip-path="url(#clip1_289_1132)">
<path d="M21.6363 22.1635V36.5875H42.3627V22.1635H21.6363ZM21.0903 17.7979H42.9087C43.5111 17.7979 43.9995 18.2779 43.9995 18.8719V37.1239C43.9987 37.2662 43.9698 37.407 43.9144 37.5381C43.8591 37.6692 43.7783 37.7881 43.6768 37.8879C43.5753 37.9877 43.4551 38.0665 43.3231 38.1197C43.1911 38.1729 43.0498 38.1994 42.9075 38.1979H21.0915C20.4879 38.1979 19.9995 37.7179 19.9995 37.1239V18.8719C19.9995 18.2779 20.4879 17.7979 21.0915 17.7979M27.3639 19.9087C27.3639 19.4647 27.7311 19.1035 28.1823 19.1035C28.6335 19.1035 29.0007 19.4635 29.0007 19.9087V36.5875C29.0007 37.0315 28.6347 37.3915 28.1823 37.3915C28.0758 37.3924 27.9701 37.3724 27.8713 37.3325C27.7725 37.2926 27.6826 37.2336 27.6066 37.159C27.5306 37.0843 27.47 36.9954 27.4284 36.8973C27.3868 36.7993 27.3649 36.694 27.3639 36.5875V19.9087ZM35.7159 19.1407C36.1683 19.1407 36.5343 19.5007 36.5343 19.9447V25.9387H42.4263C42.8787 25.9387 43.2459 26.2999 43.2459 26.7451C43.2459 27.1891 42.8787 27.5503 42.4275 27.5503L36.5343 27.5491V31.2235H42.5367C42.9891 31.2235 43.3551 31.5835 43.3551 32.0287C43.3551 32.4727 42.9891 32.8339 42.5367 32.8339H36.5343V36.6235C36.5335 36.7301 36.5117 36.8355 36.4702 36.9337C36.4286 37.0319 36.3681 37.1209 36.2921 37.1957C36.216 37.2705 36.126 37.3296 36.0272 37.3696C35.9283 37.4095 35.8225 37.4296 35.7159 37.4287C35.501 37.4303 35.2942 37.3465 35.141 37.1957C34.9877 37.045 34.9006 36.8396 34.8987 36.6247L34.8975 32.8339H21.2007C21.0942 32.8348 20.9885 32.8148 20.8897 32.7749C20.7909 32.735 20.701 32.676 20.625 32.6014C20.549 32.5267 20.4884 32.4378 20.4468 32.3397C20.4052 32.2417 20.3833 32.1364 20.3823 32.0299C20.3823 31.5847 20.7483 31.2235 21.2007 31.2235H34.8963V27.5491L21.0903 27.5503C20.9837 27.5512 20.8779 27.5311 20.7791 27.4912C20.6802 27.4512 20.5902 27.3921 20.5142 27.3173C20.4382 27.2425 20.3776 27.1535 20.3361 27.0553C20.2945 26.9571 20.2727 26.8517 20.2719 26.7451C20.2719 26.3011 20.6391 25.9399 21.0903 25.9399L34.8963 25.9387V19.9447C34.8963 19.5007 35.2635 19.1407 35.7147 19.1407" fill="white"/>
</g>
</g>
<defs>
<clipPath id="clip0_289_1132">
<rect width="64" height="64" fill="white"/>
</clipPath>
<clipPath id="clip1_289_1132">
<rect width="24" height="24" fill="white" transform="translate(20 15.9971)"/>
</clipPath>
</defs>
</svg>
